<?xml version="1.0" encoding="utf-8"?>
<!-- Generator: Adobe Illustrator 22.1.0, SVG Export Plug-In . SVG Version: 6.00 Build 0)  -->
<svg version="1.1" id="Layer_1" xmlns="http://www.w3.org/2000/svg" xmlns:xlink="http://www.w3.org/1999/xlink" x="0px" y="0px"
	 width="850.4px" height="850.4px" viewBox="0 0 850.4 850.4" style="enable-background:new 0 0 850.4 850.4;" xml:space="preserve"
	>
<g>
	<path d="M131.9,107.2c1.3,50.8,2,101.5,3.2,152.3c0.1,3.5,1,5.6,2.6,6.6c1.1,0.6,1.7,1.6,1.8,3c0.1,1.6,0.1,2.4,0.1,3.9
		c0,1.3-0.5,2.1-1.6,2.5c-8,3.2-12.1,4.8-20.2,8.2c-1,0.4-1.4,0.1-1.5-1c0-1.4,0-2.2-0.1-3.7c0-1.2,0.5-2.6,1.6-4.2
		c1.6-2.3,2.4-5.1,2.3-8.4c-0.7-49.8-1.1-99.7-1.8-149.5c-1,0.8-1.5,1.1-2.5,1.9c-1.9,1.4-3.2,3.5-4.1,6.5
		c-0.9,2.9-1.6,8.6-2.3,18.3c-0.1,1.3-0.5,2.2-1.2,2.7c-0.9,0.6-1.4,1-2.3,1.6c-1.3,0.9-2,0.3-2-1.7c0-12.5,0-18,0-26.1
		c0-1.6,0.6-2.8,1.8-3.8c0.7-0.6,2.1-1.6,4-2.8c3.1-2,5.4-3.5,7-4.8c8.1-6.4,12.1-9.5,20.4-15.5c1-1,2.3-2.2,3.8-3.7
		c2.3-2.2,3.6-3.3,3.9-3.5c1.1-0.7,1.6-0.5,1.7,0.9c0.4,10.1,0.6,16.5,1,30.3c0.1,2.2-0.4,3.7-1.5,4.3c-0.9,0.5-1.4,0.8-2.3,1.4
		c-0.9,0.6-1.5,0.4-1.7-0.5c-0.2-0.9-0.6-3.3-1.1-6.8c-0.9-5.9-1.7-9.1-2.5-10.3c-0.8-1.2-2.1-1.2-4,0.1
		C133.4,106,132.9,106.4,131.9,107.2z M197.2,76.2c2,51.9,3.6,103.8,5.6,155.7c0.2,4,1.1,6.7,2.8,8.1c1.1,0.9,1.7,2.2,1.8,3.9
		c0.1,1.9,0.1,2.9,0.2,4.8c0.1,1.6-0.4,2.5-1.5,2.9c-7.9,2.4-11.8,3.6-19.7,6.3c-0.9,0.3-1.4-0.2-1.5-1.6c-0.1-1.8-0.1-2.8-0.2-4.7
		c-0.1-1.5,0.4-3.1,1.4-4.7c1.6-2.5,2.3-5.6,2.1-9.5c-1-24.8-1.8-49.6-2.6-74.3c-5.8,2.6-8.7,3.9-14.4,6.7
		c0.8,24.4,1.5,48.9,2.4,73.3c0.1,3.8,1.1,6.2,2.7,7.4c1.1,0.8,1.8,1.9,1.8,3.5c0.1,1.8,0.1,2.7,0.2,4.4c0.1,1.5-0.5,2.4-1.6,2.7
		c-7.9,2.7-11.9,4.2-19.9,7.2c-0.9,0.3-1.4-0.1-1.5-1.3c-0.1-1.7-0.1-2.5-0.2-4.3c-0.1-1.4,0.5-2.9,1.5-4.5c1.5-2.4,2.3-5.4,2.1-9.1
		c-1.7-49.8-2.8-99.6-4.5-149.5c-0.1-3.6-1-5.7-2.6-6.5c-1.1-0.5-1.6-1.4-1.7-2.9c-0.1-1.6-0.1-2.4-0.2-4c-0.1-1.3,0.4-2.3,1.5-3
		c7.5-5,11.2-7.4,18.9-12.1c0.9-0.5,1.4-0.2,1.4,1.1c0.1,1.7,0.1,2.6,0.2,4.5c0.1,1.5-0.4,3.2-1.4,5.1c-1.5,2.8-2.1,5.9-2,9.6
		c0.8,19.7,1.4,39.5,2,59.2c5.7-2.8,8.6-4.2,14.4-6.9c-0.7-20.1-1.3-40.1-2.2-60.2c-0.2-3.9-1.1-6.2-2.8-7.1
		c-1.1-0.6-1.7-1.7-1.8-3.4c-0.1-1.8-0.1-2.7-0.2-4.4c-0.1-1.5,0.4-2.5,1.5-3.1c7.7-4.5,11.6-6.6,19.4-10.7c0.9-0.5,1.4,0,1.5,1.4
		c0.1,1.9,0.1,2.9,0.2,4.8c0.1,1.6-0.4,3.4-1.4,5.2C197.7,69.1,197,72.3,197.2,76.2z M257.1,238.1c-17.6,3.8-26.3,6.1-43.6,11.1
		c-1,0.3-1.6-0.4-1.6-2.1c-0.1-1.9-0.1-2.8-0.2-4.7c-0.1-1.5,0.6-3.5,1.9-5.8c1.2-2.1,1.7-5.1,1.5-9c-2-52.4-3.6-104.8-5.6-157.2
		c-0.2-4.1-1.1-6.7-2.7-7.9c-1.1-0.8-1.7-2-1.8-3.7c-0.1-2.1-0.1-3.1-0.2-5.1c-0.1-1.3,0.4-2.2,1.4-2.7c13-6.5,19.6-9.5,33-14.9
		c0.6-0.2,1.8-0.8,3.4-1.7c1.5-0.8,2.5-1.3,2.9-1.5c1.4-0.6,2.2-0.1,2.2,1.2c0.5,13.6,0.8,21,1.3,36.5c0.1,2,0,3.3-0.2,3.7
		c-0.2,0.5-0.7,0.8-1.6,1.1c-1,0.3-1.4,0.5-2.4,0.8c-1,0.3-1.7-0.7-1.9-3.1c-0.7-6.6-1.8-12-3.2-16.1c-1.4-4.1-4-5.4-7.7-3.9
		c-3.3,1.3-4.9,2-8.1,3.3c1,24.8,1.8,49.6,2.7,74.4c1.2-0.4,1.8-0.6,2.9-1.1c1.8-0.6,3.1-1.9,3.7-3.6c0.6-1.8,1.3-6.9,2.1-15.3
		c0.3-2.7,0.4-4.2,0.6-4.5c0.1-0.3,0.5-0.6,1.1-0.8c1.1-0.4,1.7-0.6,2.8-1c1.1-0.4,1.7,0.6,1.8,2.9c0.7,20.9,1,31.8,1.7,52.9
		c0.1,2.2-0.4,3.5-1.4,3.8c-1.2,0.4-1.8,0.6-3,0.9c-0.6,0.2-1.1,0-1.4-0.6c-0.3-0.6-0.7-2.7-1.2-6.2c-1-6.4-2-10.2-2.9-11.3
		c-0.9-1.1-2.2-1.4-3.8-0.9c-1,0.4-1.5,0.5-2.6,0.9c0.9,28,1.9,55.9,3,83.9c3.4-1,5.2-1.5,8.6-2.4c3.2-0.9,5.4-2.9,6.5-6.1
		c1.1-3.2,2.4-11.6,3.7-26.2c0.3-3.3,1-5.2,2.2-5.5c1.1-0.3,1.7-0.5,2.8-0.8c1.1-0.3,1.6,0.7,1.7,2.9
		C256.2,212.2,256.5,221.5,257.1,238.1z M310.9,119.3c13.5,6.8,20.5,24.4,21,51.3c0.2,11.7-0.8,22.1-3.2,31.2
		c-2.4,9.2-5.8,15.9-10.3,20.4c-4.5,4.5-8.9,7-13.7,7.6c-8.1,1.1-12.1,1.7-20.1,3c-0.8,0.1-1.2-0.6-1.2-2.1
		c-0.1-2.4-0.1-3.6-0.2-6.1c-0.1-1.8,0.4-3.5,1.5-5.4c1.6-2.6,2.3-6.1,2.2-10.6c-1.6-54.5-3.1-109.1-4.8-163.6
		c-0.1-4.6-1.1-7.7-2.9-9.4c-1.2-1.1-1.8-2.6-1.9-4.6c-0.1-2.3-0.1-3.4-0.2-5.7c-0.1-1.7,0.5-2.7,1.6-3.1c8.5-2.5,12.7-3.5,21.3-5.5
		c8-1.8,14.5,1.3,19.6,9.8c5.1,8.4,7.8,20.4,8.1,35.9c0.2,10.9-0.9,21.6-3.4,31.8C321.9,104.4,317.4,112.8,310.9,119.3z M297.4,33.4
		c0.8,26.6,1.5,53.2,2.2,79.8c9.5-1.8,13.7-16.5,13-43.4c-0.2-10-1.1-18-2.5-24c-1.5-6-3.1-9.7-5.1-11.2
		C303.1,33.1,300.5,32.7,297.4,33.4z M300,129.5c0.8,28.5,1.5,56.9,2.4,85.4c3.7-0.8,6.5-2.5,8.5-5.2c2.1-2.7,3.6-7,4.5-13.1
		c1-6.1,1.3-14.2,1.1-24.5c-0.4-14.9-1.8-26-4.4-33.2C309.6,131.8,305.6,128.6,300,129.5z M383.8,220.4c-17.6,1.9-26.5,2.9-44,5
		c-1,0.1-1.6-0.9-1.6-3c0-2.3-0.1-3.5-0.1-5.8c0-1.9,0.7-4,2-6.4c1.2-2.2,1.8-5.5,1.7-9.9c-1-55.4-1.9-110.7-2.9-166.1
		c-0.1-4.7-1-8.1-2.7-10.1c-1.2-1.3-1.8-3-1.8-5.1c-0.1-2.5-0.1-3.8-0.1-6.3c0-1.7,0.5-2.6,1.6-2.7c14-2.1,21-2.9,35.1-4
		c0.6,0,1.9-0.3,3.6-0.7c1.6-0.4,2.6-0.6,3-0.6c1.5-0.1,2.3,0.7,2.3,2.2c0.1,15.6,0.2,23.6,0.3,39.9c0,2.1-0.1,3.4-0.3,3.8
		s-0.8,0.7-1.7,0.7c-1,0.1-1.5,0.1-2.5,0.2c-1.1,0.1-1.7-1.2-1.9-3.7c-0.6-7.2-1.5-13.2-2.8-18.1c-1.3-4.9-4-7.2-7.9-6.9
		c-3.4,0.3-5.1,0.5-8.6,0.8c0.4,26.3,0.7,52.6,1.1,78.9c1.2-0.1,1.8-0.2,3.1-0.3c1.9-0.2,3.2-1.1,3.9-2.8c0.7-1.6,1.5-6.6,2.5-14.9
		c0.3-2.7,0.6-4.2,0.7-4.4c0.1-0.3,0.5-0.5,1.2-0.5c1.2-0.1,1.8-0.2,2.9-0.3c1.2-0.1,1.8,1,1.8,3.4c0.2,21.3,0.3,32.1,0.5,53.4
		c0,2.3-0.5,3.4-1.6,3.6c-1.2,0.1-1.8,0.2-3,0.3c-0.7,0.1-1.1-0.2-1.4-0.9c-0.3-0.7-0.6-2.8-1.1-6.5c-0.9-6.6-1.8-10.6-2.7-12
		c-0.9-1.4-2.2-2-3.9-1.8c-1.1,0.1-1.6,0.2-2.6,0.3c0.4,29.5,0.8,59,1.2,88.5c3.5-0.4,5.2-0.6,8.7-1c3.2-0.4,5.5-2.2,6.7-5.6
		c1.2-3.4,2.7-12.3,4.5-27.2c0.4-3.4,1.2-5.1,2.3-5.3c1.1-0.1,1.7-0.2,2.8-0.3c1.1-0.1,1.6,1,1.7,3.3
		C383.6,191.5,383.7,201.3,383.8,220.4z M393.7,219.4c-1.3,0.1-1.9,0.2-3.2,0.3c-1.1,0.1-1.6-1-1.6-3.4c-0.1-20.1-0.1-30.5-0.2-51.4
		c0-3.5,0.6-5.3,1.7-5.4c1.1-0.1,1.7-0.1,2.8-0.2c0.7-0.1,1.2,0.4,1.5,1.5c0.2,1,0.6,4.7,1,10.9c1.8,24,5.9,35.2,12.2,34.6
		c3.3-0.3,5.9-3.4,7.8-9.5c1.9-6.1,2.9-13.4,2.9-21.9c0-8.8-0.9-17-2.9-24.5c-2-7.5-5.9-17.7-11.8-30.5c-4.5-9.8-7.8-17.5-9.8-23
		c-2-5.5-3.5-11.7-4.7-18.6c-1.2-6.9-1.8-14.6-1.9-22.9c-0.1-15.3,1.8-27.8,5.5-37.5c3.8-9.7,8.4-14.5,13.9-14.5
		c2.5,0,5.2,1.4,8.1,4.2c1.3,1.3,2.1,1.9,2.6,1.9c0.5,0,1-0.4,1.5-1c0.5-0.6,1.2-0.9,2.1-0.9c1,0,1.5,0,2.5,0.1c1.3,0,2,1.3,2,3.7
		c-0.1,17.6-0.2,26.5-0.3,44.6c0,2.3-0.5,3.4-1.5,3.4c-1.2,0-1.9,0-3.1,0c-0.8,0-1.3-0.4-1.6-1.3c-0.2-0.9-0.7-4.2-1.3-9.9
		c-2-19.8-5.5-29.5-10.3-29.5c-2.6,0-4.7,2.2-6.2,6.5c-1.6,4.3-2.3,9.4-2.3,15.1c0,6.7,0.9,13.5,2.8,20.5c1.8,7,5.5,16.2,10.8,27.6
		c6.9,14.6,11.5,27.4,14.1,38.4c2.6,11,3.8,22.9,3.7,35.7c-0.1,17.3-2.4,31.2-6.8,42.1c-4.4,10.9-9.4,16.6-15.3,17.1
		c-2.6,0.2-5.7-0.9-9.2-3.4c-1.1-0.9-1.9-1.3-2.4-1.2c-0.4,0-1,0.6-1.7,1.5C394.5,219,394,219.4,393.7,219.4z M467.7,23.8
		c-1,55.3-2,110.7-3,166c-0.1,4.6,0.7,7.9,2.3,10.1c1.1,1.4,1.6,3.2,1.6,5.2c0,2.3-0.1,3.5-0.1,5.9c0,2-0.6,3-1.7,3.1
		c-8,0.3-12.1,0.6-20.1,1.1c-0.9,0.1-1.4-0.8-1.4-2.7c0-2.5,0-3.7,0.1-6.2c0-1.9,0.6-3.7,1.8-5.4c1.7-2.5,2.5-5.9,2.6-10.5
		c0.8-56.1,1.5-112.2,2.3-168.2c-1.2-0.1-1.8-0.2-3-0.3c-2.2-0.2-3.9,1.3-5,4.5c-1.1,3.2-2.1,10.4-3.1,21.6
		c-0.1,1.5-0.6,2.3-1.4,2.2c-1.1-0.1-1.6-0.1-2.6-0.1c-1.5-0.1-2.3-1.4-2.3-4c0.1-15.7,0.2-23.5,0.4-38.9c0-3,0.8-4.4,2.2-4.3
		c0.9,0.1,2.5,0.5,4.9,1.4c3.7,1.4,6.5,2.2,8.5,2.4c9.7,0.9,14.5,1.5,24.1,2.9c1.2-0.2,2.8-0.5,4.5-0.7c2.7-0.4,4.2-0.5,4.5-0.4
		c1.2,0.2,1.8,1.4,1.8,3.5c-0.4,15.4-0.5,23.1-0.9,38.7c-0.1,2.5-0.7,3.7-1.8,3.5c-1-0.1-1.5-0.2-2.6-0.3c-1-0.1-1.6-0.8-1.8-1.9
		c-0.2-1.2-0.4-4.1-0.8-8.6c-0.6-7.6-1.4-12.6-2.2-15c-0.8-2.4-2.3-3.8-4.5-4.1C469.6,24,468.9,24,467.7,23.8z M513.1,25.4
		c0.1-2.6,0.1-3.9,0.2-6.6c0-1.3,0.6-1.8,1.6-1.5c7,1.7,10.5,2.6,17.4,4.5c9.8,2.8,17.9,13,23.7,29.1c7.9,22.2,8.1,47.5,7.1,71
		c-0.7,16-2.3,31.3-4.9,45.8c-2.6,14.5-6.2,25.8-10.8,33.7c-4.6,8-12,12-22.2,11.8c-6.6-0.1-9.9-0.1-16.5-0.2
		c-0.8,0-1.1-0.7-1.1-2.1c0.1-2.6,0.1-3.9,0.2-6.4c0.1-1.8,0.6-3.5,1.8-5c1.7-2.3,2.6-5.6,2.7-9.7c1.5-49.6,3.1-99.1,4.6-148.7
		c0.1-4.3-0.5-7.5-1.9-9.8C513.6,29.3,513,27.3,513.1,25.4z M532.4,36.7c-1.9,54.1-3.8,108.3-5.7,162.4c4.3,0.2,7.7-1.7,10.2-5.4
		c2.5-3.7,4.5-12.1,6.1-24.9c1.6-12.9,2.7-27.6,3.3-44.4c0.7-18.1,0.8-32.6,0.4-43.4c-0.4-10.8-1.2-19.2-2.2-24.9
		c-1-5.8-2.5-10.1-4.2-12.9C538.6,40.3,536,38.1,532.4,36.7z M587.1,64.1c-0.1-3.1-0.2-4.7-0.3-7.8c-0.1-2.5-0.1-3.9-0.1-4.2
		c0-0.7,0.4-1.2,1.1-1.5c4.5-1.6,6.8-2.4,11.2-3.7c0.2-0.1,0.4,0,0.6,0.1c0.6,0.3,1,1.1,1.1,2.5c3.4,49.1,6.9,98.3,10.7,147.4
		c0.2,2.6,0.5,4.4,0.9,5.5c0.4,1.1,1.2,2.3,2.4,3.6c0.9,1,1.4,2.1,1.3,3.3c-0.1,1.8-0.1,2.7-0.2,4.4c-0.1,1.6-0.5,2.4-1.3,2.4
		c-8.6-0.3-12.9-0.5-21.5-0.8c-1.2,0-1.7-0.9-1.6-2.7c0.1-1.9,0.1-2.9,0.2-4.8c0.1-1.7,0.9-3,2.3-4.1c1.7-1.3,2.7-3.3,2.8-5.9
		c0-0.7,0-1.5,0-2.5c-0.7-9-1-13.6-1.7-22.7c-6.7-1-10.1-1.5-16.8-2.4c-1.5,8.9-2.2,13.3-3.7,22.3c-0.2,1-0.3,1.7-0.3,2.1
		c-0.1,2.3,0.8,4.8,2.6,7.6c1.2,1.9,1.7,3.5,1.6,4.8c-0.1,2-0.1,2.9-0.2,4.9c-0.1,1.8-0.7,2.7-2,2.6c-5.4-0.2-8.1-0.3-13.4-0.4
		c-1.5,0-2.2-1-2.1-2.8c0.1-2.4,0.2-3.6,0.3-6c0.1-1.6,0.6-2.9,1.6-3.9c1.8-1.8,3.1-5,3.9-9.6C573.1,149.3,580,106.7,587.1,64.1z
		 M589.9,101.1c-3.7,21.7-5.6,32.7-9.3,55.1c5.3,0.9,8,1.4,13.3,2.4C592.3,136,591.5,124.5,589.9,101.1z M647.5,154.4
		c-0.8,18.4-1.2,27.6-1.9,46c-0.1,3.1,0.6,5.6,2.2,7.3c1,1.1,1.5,2.3,1.4,3.7c-0.1,1.6-0.1,2.4-0.2,4c-0.1,1.4-0.6,2-1.8,2
		c-8-0.3-12-0.4-20-0.7c-0.9,0-1.4-0.7-1.3-2.1c0.1-1.8,0.1-2.7,0.2-4.6c0.1-1.4,0.7-2.7,1.8-3.8c1.7-1.6,2.6-4,2.8-7.3
		c0.9-19.5,1.3-29.2,2.2-48.7c-3.3-23.7-6.5-47.5-9.5-71.2c-0.6-4.4-1.7-7.7-3.4-9.8c-0.9-1.2-1.4-2.6-1.3-4.2
		c0.1-2,0.1-3.1,0.2-5.1c0.1-1.5,0.5-2,1.3-1.6c8.1,4.4,12.1,6.7,20,11.5c1.1,0.7,1.7,1.9,1.6,3.5c-0.1,1.8-0.1,2.7-0.2,4.5
		c0,1.1-0.7,1.7-1.8,1.7c-1.8,0-2.8,1-2.9,2.9c0,0.6,0,1.4,0.2,2.2c2.8,20.5,4.2,30.5,7.1,49.7c4-15.2,5.9-22.5,9.8-36.6
		c0.3-1.3,0.5-2.7,0.6-4c0.1-2.3-0.7-4.5-2.5-6.8c-1-1.3-1.5-2.5-1.5-3.6c0.1-1.9,0.1-2.9,0.2-4.8c0.1-1.4,0.6-1.8,1.5-1.2
		c6,3.9,9,5.9,14.9,9.9c1.1,0.8,1.7,1.8,1.6,3c-0.1,1.7-0.1,2.6-0.2,4.3c0,1.2-0.7,1.8-1.8,1.8c-2.3,0.1-3.9,1.6-4.7,4.4
		C656.5,120.8,653.5,131.6,647.5,154.4z M673,218.1c-1.3,0-1.9-0.1-3.2-0.1c-1.1,0-1.6-0.8-1.5-2.3c0.4-12.3,0.6-18.5,1.1-30.8
		c0.1-2.1,0.7-3,1.8-2.7c1.1,0.2,1.6,0.3,2.7,0.6c0.7,0.2,1.2,0.6,1.4,1.2c0.2,0.7,0.5,2.8,0.8,6.5c1.3,14.1,5.1,21.1,11.3,21.5
		c3.2,0.2,5.8-1.3,7.7-4.2c1.9-2.9,2.8-6.5,2.9-10.9c0.1-4.5-0.9-8.8-2.7-13.2c-1.9-4.4-5.4-10.7-10.7-19.7
		c-4-6.9-6.9-12.5-8.6-16.4c-1.7-3.9-3-8.1-3.9-12.7c-0.9-4.6-1.3-9.4-1.1-14.3c0.3-9.1,2.2-15.6,5.7-19.1c3.5-3.5,7.5-3.2,12.1,0.3
		c2.1,1.6,4.3,4.2,6.7,7.5c1.1,1.5,1.8,2.4,2.1,2.7c0.4,0.3,0.8,0.4,1.3,0.4c0.4,0,1,0.3,1.7,0.9c0.8,0.7,1.3,1,2.1,1.7
		c1.1,0.9,1.6,1.9,1.6,3.1c-0.1,8.8-0.1,13.3-0.2,22.1c0,1.1-0.4,1.4-1.3,0.9c-1.1-0.6-1.6-0.9-2.7-1.6c-0.7-0.4-1.2-0.9-1.4-1.5
		c-0.2-0.6-0.6-2.5-1.1-5.7c-1.7-11.3-4.5-18.7-8.6-21.6c-2.2-1.6-4-1.6-5.4-0.1c-1.4,1.6-2.2,4-2.3,7.3c-0.1,3.8,0.6,8.1,2.1,12.9
		c1.5,4.8,4.6,11.6,9.3,19.8c6,10.5,10.3,18.4,12.7,24.5c2.4,6.1,3.6,12,3.6,18c0,8.1-2.1,14.4-6.3,19.5c-4.3,5.1-9.4,7.9-15.3,7.9
		c-2.6,0-5.7-0.9-9.1-2.6c-1.1-0.6-1.9-0.9-2.3-0.9c-0.4,0-1,0.3-1.7,0.8C673.7,218,673.3,218.2,673,218.1z"/>
	<path d="M173.6,757.5c-5.5,8.7-12.4,14.2-20.9,16.2c-8.5,2-17.5,0.2-26.5-5.4c-12.8-8.1-19.8-19.8-20.5-34.1
		c-0.7-14.3,6-29.8,19.2-46.7c13-16.7,26-27.2,38.4-32.3c12.4-5.1,22.6-4.9,31.4,0.6c3.6,2.3,6.9,5.9,10.1,10.8
		c0.5,0.7,0.9,1.1,1.2,1.3c0.4,0.2,1.1,0.2,2.1,0c0.6-0.3,1.2-0.3,1.8,0c1.8,1,2.7,1.5,4.5,2.5c1,0.6,1.1,1.5,0.4,2.9
		c-5.2,9.5-7.7,14.3-12.9,23.8c-0.7,1.4-1.6,1.7-2.7,1.1c-1.5-0.8-2.3-1.2-3.8-2.1c-1.2-0.7-1.9-1.4-2-2.2c-0.1-0.8,0.1-2.5,0.7-5.3
		c2.9-13,2-20.9-3.2-24.2c-3.1-1.9-6.3-2.1-9.8-0.5c-3.5,1.6-8.3,5.9-14.3,12.9c-6.1,7-11.8,14.3-17.1,22.1
		c-11.6,17-18.8,30.3-21.5,40.1c-2.6,9.8-0.3,17.1,6.8,21.5c8.5,5.3,18.1,1.9,28.2-10C167.2,753.4,169.3,754.8,173.6,757.5z
		 M241,700.5c0.6-2.2,0.8-3.3,1.4-5.5c0.5-1.8,0.7-2.8,0.8-3c0.2-0.5,0.8-0.8,1.8-0.7c6.7,0,10,0,16.6-0.3c0.3,0,0.5,0,0.8,0.1
		c0.8,0.3,1.1,0.9,1,1.9c-5.1,38.2-8.4,76.2-9.9,114.8c-0.1,2.1,0.1,3.7,0.7,4.8c0.5,1.1,1.8,2.4,3.7,4c1.5,1.2,2.1,2.3,1.8,3.3
		c-0.4,1.4-0.6,2.1-1,3.5c-0.4,1.3-1.3,1.7-2.7,1.3c-15.2-4.4-22.7-6.9-37.6-12.5c-2-0.8-2.8-1.8-2.3-3c0.5-1.4,0.8-2,1.3-3.4
		c0.5-1.2,2-1.7,4.7-1.7c3.2,0,5.2-1,5.9-2.8c0.2-0.5,0.3-1.1,0.4-1.9c0.6-7.1,0.9-10.7,1.6-17.8c-10.9-4.1-16.3-6.3-27-11.1
		c-4.4,5.3-6.7,7.9-11.2,13.1c-0.5,0.6-0.8,1-1,1.3c-0.7,1.5,0.1,3.9,2.5,7.1c1.5,2.1,2.1,3.6,1.7,4.5c-0.6,1.3-0.9,2-1.5,3.3
		c-0.5,1.2-1.9,1.3-4,0.4c-9.1-4.1-13.7-6.3-22.6-10.8c-2.5-1.3-3.4-2.5-2.8-3.7c0.8-1.5,1.2-2.3,2-3.8c0.5-1,1.7-1.5,3.6-1.3
		c3.5,0.2,6.4-0.9,8.8-3.4C200.6,752.8,221.7,727.2,241,700.5z M236.8,727.5c-10.3,14.1-15.6,21-26.6,34.7
		c8.3,3.7,12.5,5.4,20.9,8.6C233,753.3,234.1,744.7,236.8,727.5z M275,813.9c8.1-31.5,16.2-63.1,24.3-94.6c0.7-2.7,0.1-5-1.7-7
		c-1.3-1.3-1.7-2.6-1.4-3.9c0.4-1.4,0.6-2.1,1-3.5c0.3-1.2,1.2-1.6,2.7-1.2c12.3,3.3,18.6,4.7,31.1,6.9c-0.3,20.3,0,40.8,0.9,61.1
		c6.8-19.2,13.1-38.6,18.8-58.1c12.7,1.6,19.1,2.1,31.9,2.6c1.3,0.1,1.9,0.6,1.9,1.8c-0.1,1.5-0.1,2.3-0.1,3.8
		c0,1.3-0.9,2.4-2.5,3.3c-2.3,1.4-3.6,3.4-3.7,6.2c-1.6,32.5-3.2,65-4.9,97.6c-0.1,2.9,1.2,5.1,4.2,6.6c1.9,1,2.8,2.1,2.8,3.4
		c-0.1,1.5-0.1,2.2-0.1,3.7c0,1.3-1.1,1.9-3.1,1.8c-14.1-0.6-21.2-1.1-35.2-2.7c-1.6-0.2-2.4-0.9-2.3-2c0.2-1.5,0.3-2.3,0.4-3.9
		c0.1-1.2,1.2-2.2,3.2-3c3.1-1.1,4.8-3.1,5.1-5.9c3.3-33.2,6.7-66.3,10-99.5c-10.8,37.8-23,74.8-36.7,111.6
		c-3.7-0.6-5.6-0.9-9.3-1.5c-1.4-39.2-1.2-78.2,0.4-117.5c-7.2,32.6-14.4,65.1-21.6,97.7c-0.6,2.8,0.3,5.2,2.9,7.2
		c1.8,1.3,2.5,2.6,2.3,3.8c-0.3,1.5-0.4,2.2-0.7,3.6c-0.3,1.2-1.4,1.7-3.4,1.2c-10.3-2.2-15.4-3.4-25.6-6.1
		c-1.7-0.4-2.4-1.2-2.1-2.3c0.4-1.5,0.6-2.2,1-3.7c0.3-1.2,1.6-2,3.8-2.4C272.4,818.4,274.3,816.6,275,813.9z M419.4,785.2
		c0.8,17.4,1.3,26.2,2.1,43.6c0.1,2.9,1.7,4.9,4.7,6.2c2,0.8,3.1,1.9,3.2,3.1c0.1,1.5,0.1,2.2,0.2,3.7c0.1,1.3-0.9,2-2.9,2.1
		c-14.6,0.8-21.9,1-36.6,0.8c-1.7,0-2.6-0.6-2.5-1.8c0-1.6,0-2.3,0.1-3.9c0-1.2,1-2.3,3.1-3.2c2.9-1.4,4.4-3.6,4.4-6.4
		c0.2-32.6,0.3-65.1,0.5-97.7c0-2.8-1.1-4.9-3.4-6.4c-1.5-1-2.3-2.1-2.3-3.4c0-1.5,0-2.2,0.1-3.6c0-1.3,0.8-1.9,2.3-1.9
		c9.5,0.1,14.2,0.1,23.7-0.4c12.9-0.6,23,1.4,31,6.8c8,5.3,13,13,14.6,23.3C465.9,772.5,442.5,784.1,419.4,785.2z M416.5,725.8
		c1,19.9,1.4,29.8,2.4,49.7c6.1-0.3,10.5-1.2,13.2-2.5c2.7-1.3,4.7-3.8,6.1-7.3c1.3-3.5,1.6-8.8,0.9-15.9c-0.7-7-1.9-12.2-3.7-15.5
		c-1.7-3.3-4-5.6-6.9-6.8C425.6,726.2,421.7,725.7,416.5,725.8z M514.9,815.3c0.7,2.8,2.6,4.5,5.8,5.2c2.2,0.4,3.4,1.2,3.8,2.4
		c0.4,1.4,0.6,2.2,0.9,3.6c0.3,1.2-0.5,2.1-2.5,2.6c-14.3,3.6-21.5,5.2-35.9,7.7c-1.7,0.3-2.6-0.1-2.8-1.3c-0.3-1.5-0.4-2.3-0.7-3.8
		c-0.2-1.2,0.6-2.4,2.4-3.8c2.6-2,3.7-4.4,3.1-7.1c-6-32-12-64-18.1-96c-0.5-2.8-2-4.6-4.5-5.6c-1.7-0.6-2.7-1.6-2.9-2.9
		c-0.2-1.4-0.4-2.1-0.6-3.6c-0.2-1.2,0.4-2,1.9-2.3c10.8-1.9,16.2-3.1,26.9-5.8c1.3-0.3,2,0.1,2.3,1.2c0.4,1.5,0.6,2.2,1,3.7
		c0.3,1.2-0.1,2.5-1.4,3.9c-1.9,2-2.5,4.3-1.8,7C499.5,752,507.2,783.7,514.9,815.3z M576.2,749.1c-8.6-19.9-12.9-29.8-21.5-49.7
		c-1.1-2.6-3-4.1-5.7-4.5c-1.8-0.2-3-1-3.5-2.2c-0.6-1.3-0.8-2-1.4-3.4c-0.5-1.2,0-2.1,1.4-2.7c7.4-3.1,11.1-4.8,18.4-8.3
		c1.2-0.6,2-0.3,2.5,0.7c0.7,1.4,1,2,1.7,3.4c0.6,1.1,0.4,2.5-0.6,4c-1.5,2.4-1.7,4.8-0.5,7.3c15.8,33.4,31.6,66.9,47.4,100.3
		c0.8,1.6,0.1,2.9-2,3.9c-1.9,0.9-2.9,1.3-4.8,2.2c-2.2,1-4.1,0.9-5.7-0.4c-26.7-20.2-51.3-43.2-74-67.8c8,24.3,16,48.5,23.9,72.8
		c0.9,2.7,3,4.3,6.3,4.7c2.2,0.2,3.5,1,3.9,2.2c0.5,1.4,0.7,2.1,1.2,3.5c0.4,1.2-0.3,2.1-2.3,2.8c-10,3.4-15.1,5-25.3,7.8
		c-1.7,0.5-2.6,0.1-2.9-1c-0.4-1.5-0.6-2.2-1-3.7c-0.3-1.2,0.4-2.5,2-4c2.4-2.2,3.2-4.7,2.4-7.4c-9.1-31.3-18.3-62.5-27.4-93.8
		c-0.8-2.7-2.5-4.4-5.1-5.1c-1.8-0.5-2.8-1.4-3.2-2.6c-0.4-1.4-0.6-2.1-1-3.5c-0.3-1.2,0.2-2,1.7-2.4c7.2-2,10.8-3.1,17.9-5.5
		c1.3-0.4,2.2-0.6,2.7-0.5c0.5,0.1,1.2,0.7,2.1,1.6C540.2,716,557.7,733.1,576.2,749.1z M649.3,715.4c9.2-6.1,13.7-9.3,22.6-16
		c1.5-1.1,2.5-1.7,3-1.7c0.6-0.1,1.2,0.3,1.8,1.1c0.3,0.4,0.8,1.2,1.5,2.5c1.8,3,3.5,5.5,5,7.4c5.6,7.3,8.4,11,14,18.3
		c0.9,1.2,2.2,1.8,3.5,1.6c1.1-0.1,1.9,0.1,2.5,0.9c0.7,0.9,1.1,1.4,1.8,2.3c0.7,0.9,0.6,2.4-0.5,4.4c-1,2-3.6,5.6-7.9,10.6
		c-4.3,5-9.9,9.7-16.2,14.1c-29.8,20.5-61.4,3.4-75.5-26.1c-4.8-10.1-9.1-20.8-11.5-31.5c-2.4-10.7-2.4-20.8-0.3-30.4
		c2.1-9.6,6.1-16.2,12.3-20.3c3.1-2,7-3.5,11.6-4.5c1.4-0.3,2.4-0.7,3-1.1c0.3-0.2,0.7-0.8,1.3-1.8c0.4-0.7,0.9-1.3,1.3-1.6
		c1.2-0.8,1.7-1.3,2.9-2.1c1.4-1,2.5-1,3.4,0.2c6.6,8.7,9.8,13,16.4,21.7c1,1.3,0.8,2.4-0.6,3.4c-1.3,1-2,1.5-3.4,2.5
		c-1.1,0.8-1.8,1.1-2.1,1.1c-0.3-0.1-1.8-1.2-4.4-3.3c-10.1-8.5-18.2-10.6-24.7-6.4c-3.1,2-4.9,4.9-5.4,8.8
		c-0.5,3.9,1.7,10.7,6.4,20.7c4.7,10,9.8,19.6,15.4,29c5.9,9.8,11.2,17.6,16,23.3c4.8,5.7,9,9.7,12.4,12c3.4,2.3,6.6,3.4,9.4,3.2
		c2.8-0.1,5.6-1.1,8.3-2.9c5.9-3.9,6.8-8.8,2.9-14.5c-4-5.9-6.1-8.8-10.1-14.7c-1.7-2.5-3.4-4.1-5.1-4.6c-1.6-0.5-4.1-0.3-7.5,0.7
		c-1.6,0.5-2.7,0.3-3.3-0.5c-0.8-1.2-1.1-1.7-1.9-2.9C647.4,717.5,647.8,716.4,649.3,715.4z"/>
	<path d="M381.4,531.6c-4-1.1-8.5-1.3-12.7-1.5c-12.8-0.5-25.7-0.9-38.5-1.4c-3-0.1-6.1-0.2-9.2,0.2c-5.6,6.6-9,15.2-9,24.5
		c0,21.1,17.1,38.2,38.2,38.2c21.1,0,38.2-17.1,38.2-38.2C388.3,545.3,385.7,537.7,381.4,531.6z M350.1,572.9
		c-10.7,0-19.5-8.8-19.5-19.5s8.7-19.5,19.5-19.5c10.7,0,19.5,8.8,19.5,19.5S360.9,572.9,350.1,572.9z M350.1,567.5
		c-7.8,0-14.1-6.3-14.1-14.1s6.3-14.1,14.1-14.1s14.1,6.3,14.1,14.1S357.9,567.5,350.1,567.5z M396.7,470.9
		C396.6,470.9,396.6,470.9,396.7,470.9C396.6,470.9,396.6,470.9,396.7,470.9L396.7,470.9z M428.8,274.6v9.5h9.3v257.2h83.2V284.2
		h7.5v-9.5H428.8z M451.1,431.1h-4.9v-28.2h4.9V431.1z M706.6,311c-2.1-18-6.9-36.9-19.8-49.7c-4.1-4.1-8.8-7.3-13.8-9.9
		c-15.4-7.9-34.3-9.5-52-10.2c-104-4.1-208,4.4-311.7,13.4c-54.4,4.7-112.8,11.1-154.1,46.8c-33.5,29-50.4,73.9-52.1,118.2
		c-1.2,32.2,5,64.3,14.8,94.8c2.5,7.7,5.2,15.3,8.1,22.8c2.6,6.6,3,10.6,10.4,11.1c17.2,1.1,34.5,0.8,51.7,1.2
		c28.7,0.7,57.3,1.4,85.9,2.1c9.5,0.2,20.2-0.1,26.4-7.2c3.4-3.8,4.8-9.2,8.5-12.8c3.2-3.1,7.5-4.4,12-4.8c3.1-0.4,6.2-0.3,9.2-0.2
		c12.9,0.5,25.7,0.9,38.5,1.4c4.2,0.2,8.7,0.4,12.7,1.5c3.2,0.8,6.1,2.2,8.6,4.3c5.7,5.1,7.4,13.9,13.8,18.2
		c4.1,2.8,9.3,3.1,14.3,3.3c83.4,3.9,166.7,7.9,250.1,11.9c12.1-45.2,22.2-90.9,30.5-136.9C705.6,390.9,711.3,350.7,706.6,311z
		 M271.7,404.5c0,3.7-2.9,6.7-6.6,6.8c-31,0.4-62,1.1-92.9,2.3c-4.2,0.2-7.5-3.6-6.9-7.8c4-24.2,14.5-45.4,29.6-58.4
		c16.8-14.5,40.8-21.9,69.2-26.5c4.2-0.7,8,2.7,7.8,7C270.3,353.1,271.4,378.9,271.7,404.5z M391.9,404.4c0.1,3.8-3,6.9-6.8,6.9
		c-30-0.3-60-0.5-90-0.3c-3.7,0-6.7-3-6.7-6.7c0.2-26.7,0.3-53.5-1.6-80.1c-0.3-3.6,2.4-6.7,6-7.1c7-0.7,14.3-1.4,21.6-2
		c24.6-2.1,48.1-4.1,70.8-5.9c4-0.3,7.4,2.9,7.2,7C391.3,343.4,391.4,387.4,391.9,404.4z M533.4,288.9h-7.5v257.2h-92.6V288.9h-9.3
		v-18.9h109.3V288.9z M640.5,411.1c-0.5,3.2-3.3,5.6-6.6,5.6h-16c-20.4-0.6-40.9-1.1-61.3-1.7c-3.5-0.1-6.3-2.9-6.5-6.3
		c-1.8-33.9-3.9-67.4-3.2-101.3c0.1-3.6,3-6.5,6.7-6.6c3.9,0,7.9,0,11.8,0c18.2,0,36.1,0.3,53.2,1c4.8,0.2,8.8,0.4,12.1,0.7
		c8.2,0.7,14.8,7.2,15.8,15.4c0,0.1,0,0.1,0,0.2C649.7,345.8,646.6,375.6,640.5,411.1z"/>
	<path d="M267.3,608c-0.2-1.3-0.2-2-0.4-3.3c-0.1-1.1-0.2-1.7-0.2-1.8c0-0.3,0.2-0.6,0.7-0.8c3-1.4,4.5-2.2,7.5-3.8
		c0.1-0.1,0.3-0.1,0.4-0.1c0.4,0,0.7,0.3,0.8,0.9c3.9,23.9,7.6,47.9,11,71.9c0.2,1.4,0.4,2.4,0.7,3c0.3,0.7,0.9,1.5,1.7,2.4
		c0.7,0.7,1,1.4,1,2c0,0.9,0,1.4,0,2.4c0,0.9-0.3,1.2-0.8,1c-5.8-2-8.7-3-14.5-5.2c-0.8-0.3-1.2-0.9-1.2-1.6c0-0.9,0-1.3,0-2.2
		c0-0.8,0.5-1.2,1.4-1.4c1.1-0.3,1.7-1.1,1.7-2.3c0-0.3,0-0.7-0.1-1.2c-0.7-4.5-1-6.7-1.7-11.1c-4.5-1.3-6.8-2-11.3-3.4
		c-0.7,3.6-1.1,5.3-1.9,8.8c-0.1,0.4-0.1,0.7-0.1,0.8c0,0.9,0.6,2.2,1.9,3.8c0.8,1.1,1.2,1.9,1.2,2.5c0,0.8,0,1.3,0,2.1
		c0,0.8-0.4,1-1.2,0.6c-3.6-1.5-5.3-2.3-8.9-3.9c-1-0.5-1.5-1-1.5-1.7c0-0.9,0-1.4,0-2.3c0-0.6,0.3-1,0.9-1.1
		c1.2-0.3,1.9-1.2,2.3-2.9C260.9,640.6,263,630.1,267.3,608z M270.2,623.9c-1.9,9.8-2.9,14.5-4.8,23.8c3.6,1,5.4,1.5,9,2.4
		C272.7,639.4,271.9,634.1,270.2,623.9z M306.4,645.6c-0.2,12.3-0.3,18.4-0.5,30.7c0,2,0.5,3.6,1.6,4.9c0.8,0.8,1.1,1.7,1.1,2.6
		c0,1,0,1.5,0,2.6c0,0.9-0.4,1.2-1.2,1c-5.5-1.5-8.3-2.4-13.7-4.1c-0.6-0.2-1-0.7-0.9-1.5c0-1,0-1.5,0-2.5c0-0.8,0.4-1.4,1.2-1.8
		c1.1-0.6,1.7-1.9,1.7-3.8c0.3-21.6,0.7-43.2,1-64.8c0-1.9-0.5-3.3-1.6-4.3c-0.8-0.6-1.1-1.4-1.1-2.2c0-1,0-1.4,0-2.4
		c0-0.8,0.4-1.2,1.2-1.2c4.7,0,7,0,11.6,0c6.6,0,11.5,2,14.9,6c3.4,4,5,9.9,4.9,17.4c-0.2,12-4.4,19.5-12.7,21.8
		c2.4,1.9,4.2,3.9,5.4,6c1.2,2.2,2.2,5.2,2.8,9.2c1.2,7.7,1.8,11.6,3,19.4c0.4,2.5,0.8,4.2,1.2,5.2c0.4,0.9,1,1.9,2,2.8
		c0.3,0.3,0.4,0.7,0.4,1.2c0,1.4,0,2.1-0.1,3.4c0,0.9-0.3,1.3-1,1.1c-3.6-0.8-5.3-1.2-8.9-2.1c-0.9-0.2-1.4-1-1.6-2.3
		c-2.2-13.5-3.3-20.1-5.6-33.2c-0.6-3.6-1.3-6-2-7.1C308.6,646.5,307.6,645.8,306.4,645.6z M307,605.6c-0.2,13.3-0.3,20-0.5,33.3
		c3.2,0.4,5.6-0.6,7.1-3c1.5-2.5,2.4-7.1,2.5-13.9c0.1-6.6-0.6-11-2.1-13.1C312.5,606.8,310.2,605.7,307,605.6z M362.4,698.2
		c-12.4-1.5-18.6-2.5-30.8-5c-0.7-0.1-1.1-0.7-1.1-1.7c0-1.1,0-1.6,0-2.7c0-0.8,0.5-1.7,1.5-2.5c0.9-0.7,1.3-2.2,1.4-4.1
		c0.3-24,0.7-48.1,1-72.1c0-2.1-0.5-3.7-1.6-4.8c-0.7-0.7-1.1-1.5-1.1-2.4c0-1.2,0-1.7,0-2.9c0-0.8,0.4-1.2,1.1-1.1
		c9.1,0,13.7,0,22.8,0.1c0.4,0,1.2-0.1,2.4-0.2c1-0.1,1.7-0.2,2-0.2c1,0,1.5,0.4,1.5,1.1c-0.1,7.5-0.1,11.2-0.2,18.7
		c0,1-0.1,1.6-0.2,1.7c-0.1,0.2-0.5,0.3-1.1,0.3c-0.7,0-1,0-1.6,0c-0.7,0-1.1-0.6-1.2-1.8c-0.3-3.3-0.8-6.1-1.7-8.5
		c-0.8-2.4-2.5-3.5-5.1-3.6c-2.2,0-3.4,0-5.6-0.1c-0.2,14.1-0.3,21.1-0.4,35.2c0.8,0.1,1.2,0.1,2.1,0.2c1.3,0.1,2.2-0.2,2.6-0.8
		c0.5-0.7,1.1-2.8,1.9-6.4c0.3-1.2,0.4-1.8,0.5-1.9c0.1-0.1,0.4-0.2,0.8-0.1c0.8,0,1.2,0.1,2,0.1c0.8,0,1.2,0.6,1.1,1.6
		c-0.1,9.5-0.2,14.3-0.3,23.8c0,1-0.4,1.5-1.1,1.4c-0.8-0.1-1.2-0.1-2.1-0.2c-0.4,0-0.8-0.2-0.9-0.6c-0.2-0.3-0.4-1.3-0.7-3
		c-0.5-3-1.1-4.9-1.7-5.6c-0.6-0.7-1.5-1.1-2.6-1.2c-0.7-0.1-1.1-0.1-1.8-0.2c-0.2,15.7-0.3,23.6-0.5,39.4c2.4,0.4,3.6,0.6,6.1,0.9
		c2.3,0.3,3.8-0.2,4.7-1.6c0.9-1.4,2-5.4,3.4-12c0.3-1.5,0.9-2.2,1.6-2.1c0.8,0.1,1.2,0.1,1.9,0.2c0.8,0.1,1.1,0.6,1.1,1.7
		C362.6,684.4,362.5,689,362.4,698.2z M385.6,700.2c-0.9,0-1.4-0.1-2.3-0.1c-0.8,0-1.1-0.7-1.1-1.8c0.1-9.8,0.1-14.7,0.1-24.5
		c0-1.6,0.4-2.5,1.2-2.4c0.8,0,1.2,0,1.9,0.1c0.5,0,0.8,0.3,1,0.8c0.2,0.5,0.4,2.2,0.7,5.2c1.2,11.4,4,17.3,8.4,17.4
		c2.3,0.1,4.1-1.4,5.4-4.2c1.3-2.9,2-6.4,2-10.5c0-4.2-0.7-8.2-2.1-11.8c-1.4-3.6-4.1-8.6-8.1-14.8c-3.1-4.8-5.3-8.5-6.5-11.1
		c-1.3-2.6-2.3-5.6-3.1-8.8c-0.8-3.3-1.2-6.9-1.1-10.8c0-7.2,1.3-13.1,3.8-17.7c2.5-4.6,5.5-7,9.1-7c1.6,0,3.4,0.7,5.2,2
		c0.8,0.6,1.4,0.9,1.7,0.9c0.3,0,0.6-0.2,1-0.5c0.3-0.3,0.8-0.5,1.3-0.5c0.7,0,1,0,1.6,0c0.9,0,1.3,0.6,1.3,1.8c0,8.7,0,13,0,21.7
		c0,1.1-0.3,1.6-1,1.6c-0.8,0-1.2,0-2.1,0c-0.5,0-0.9-0.2-1-0.6c-0.2-0.4-0.5-2-0.9-4.7c-1.4-9.5-3.7-14.2-6.8-14.2
		c-1.7,0-3,1-4.1,3.1c-1,2.1-1.6,4.5-1.6,7.2c0,3.2,0.6,6.4,1.8,9.8c1.2,3.3,3.6,7.7,7.2,13.2c4.6,7,7.8,13.1,9.6,18.3
		c1.8,5.2,2.7,10.9,2.7,17.1c0,8.3-1.5,15.1-4.5,20.3c-3,5.2-6.6,7.8-10.8,7.7c-1.9,0-4-0.8-6.5-2.3c-0.8-0.5-1.3-0.8-1.7-0.8
		c-0.3,0-0.7,0.2-1.2,0.6C386.1,700.1,385.8,700.2,385.6,700.2z M427.4,653.5c0.1,13.8,0.1,20.6,0.2,34.4c0,2.3,0.6,3.9,1.7,5
		c0.8,0.7,1.2,1.5,1.2,2.5c0,1.2,0,1.8,0,2.9c0,1-0.4,1.5-1.2,1.6c-5.7,0.4-8.5,0.5-14.2,0.7c-0.7,0-1-0.4-1-1.3c0-1.2,0-1.8,0-3.1
		c0-1,0.4-1.8,1.2-2.6c1.1-1.2,1.7-2.9,1.7-5.1c-0.1-25.8-0.1-51.6-0.2-77.3c0-2.2-0.6-3.9-1.7-5c-0.8-0.7-1.2-1.6-1.2-2.7
		c0-1.2,0-1.7,0-2.9c0-1,0.4-1.5,1.2-1.5c4.8,0,7.2,0,12,0c6.5,0,11.6,2.5,15.2,7.3c3.6,4.9,5.5,11.3,5.5,19.4
		C448,643.5,441.2,653,427.4,653.5z M427.1,606.6c0.1,15.7,0.1,23.5,0.2,39.2c2.7-0.1,4.7-0.6,5.9-1.5c1.2-0.9,2.2-2.7,2.9-5.4
		c0.7-2.7,1.1-6.8,1-12.3c0-5.5-0.4-9.6-1.1-12.3c-0.7-2.7-1.7-4.6-3.1-5.7C431.6,607.4,429.6,606.8,427.1,606.6z M483.7,691.9
		c-12.2,2.8-18.4,3.9-30.8,5.5c-0.7,0.1-1.1-0.4-1.1-1.4c0-1.1,0-1.7,0-2.8c0-0.9,0.5-1.9,1.5-3.1c0.9-1.1,1.3-2.7,1.3-4.7
		c-0.3-25-0.5-49.9-0.8-74.9c0-2.2-0.6-3.8-1.7-4.9c-0.7-0.7-1.1-1.6-1.1-2.5c0-1.2,0-1.8,0-3c0-0.8,0.3-1.2,1.1-1.2
		c9.1,0,13.7,0,22.8-0.1c0.4,0,1.2-0.1,2.4-0.2c1-0.1,1.7-0.2,2-0.2c1,0,1.5,0.4,1.5,1.1c0.1,7.1,0.2,10.6,0.3,17.7
		c0,0.9,0,1.5-0.2,1.7c-0.1,0.2-0.5,0.3-1.1,0.3c-0.7,0-1,0-1.6,0.1c-0.7,0-1.1-0.5-1.2-1.6c-0.4-3.1-1-5.8-1.9-8.1
		c-0.9-2.2-2.6-3.3-5.1-3.3c-2.2,0-3.4,0.1-5.6,0.1c0.2,14.1,0.3,21.1,0.4,35.2c0.8-0.1,1.2-0.1,2.1-0.2c1.3-0.1,2.2-0.5,2.6-1.2
		c0.5-0.7,1-2.9,1.7-6.5c0.2-1.2,0.4-1.8,0.5-1.9c0.1-0.1,0.4-0.2,0.8-0.2c0.8-0.1,1.2-0.1,2-0.1c0.8-0.1,1.2,0.4,1.2,1.4
		c0.1,9.2,0.2,13.8,0.3,23c0,1-0.3,1.5-1.1,1.6c-0.8,0.1-1.2,0.2-2.1,0.3c-0.4,0.1-0.8-0.1-0.9-0.3c-0.2-0.3-0.4-1.2-0.8-2.8
		c-0.6-2.8-1.2-4.6-1.8-5.1c-0.6-0.6-1.5-0.8-2.6-0.7c-0.7,0.1-1.1,0.1-1.8,0.2c0.2,15.8,0.3,23.6,0.5,39.4c2.4-0.4,3.6-0.6,6.1-1
		c2.2-0.4,3.8-1.4,4.6-3c0.8-1.6,1.9-5.7,3-12.4c0.3-1.5,0.8-2.3,1.6-2.4c0.8-0.1,1.2-0.2,1.9-0.3c0.7-0.1,1.1,0.3,1.1,1.3
		C483.5,679,483.6,683.3,483.7,691.9z M511.6,645c-0.2-14.4-0.3-21.7-0.5-36.1c0-1.9-0.6-3.3-1.7-4.2c-0.8-0.6-1.2-1.4-1.2-2.3
		c0-1,0-1.5,0-2.5c0-0.9,0.4-1.3,1.1-1.3c4,0,6,0,10,0c0.7,0,1,0.4,1,1.1c0,1,0,1.5,0,2.4c0,0.8-0.3,1.5-1.1,2.2
		c-1.1,1-1.7,2.4-1.7,4.2c0.3,24.1,0.7,48.2,1,72.2c0,1.1-0.4,1.9-1.2,2.1c-0.8,0.3-1.2,0.4-1.9,0.6c-0.9,0.3-1.5-0.1-1.9-1.2
		c-6.8-19.2-13.2-38.7-19.3-58.1c0.3,21.6,0.5,32.4,0.8,54c0,2,0.6,3.4,1.8,4.1c0.8,0.5,1.2,1.1,1.2,2c0,1,0,1.6,0,2.6
		c0,0.9-0.4,1.4-1.1,1.6c-4,1.1-5.9,1.5-9.9,2.5c-0.6,0.2-1-0.2-1-1c0-1.1,0-1.7,0-2.8c0-0.9,0.4-1.8,1.1-2.6c1.1-1.3,1.7-3,1.6-5
		c-0.4-23.3-0.7-46.7-1.1-70c0-2-0.6-3.5-1.8-4.5c-0.8-0.7-1.2-1.5-1.2-2.4c0-1,0-1.6,0-2.6c0-0.9,0.4-1.4,1.1-1.4
		c3.8,0,5.6,0,9.4,0c0.7,0,1.1,0.1,1.4,0.3c0.2,0.2,0.5,0.7,0.7,1.5C503,619.2,505.9,628.1,511.6,645z M544.3,604
		c0.1,19.8,0.3,39.6,0.4,59.4c0,1.6,0.6,2.7,1.6,3.1c0.7,0.2,1.1,0.7,1.1,1.4c0,0.8,0,1.3,0,2.1c0,0.7-0.4,1.2-1.1,1.6
		c-5.3,2.3-8,3.4-13.4,5.4c-0.6,0.2-1,0-1-0.7c0-1,0-1.4,0-2.4c0-0.7,0.4-1.6,1.1-2.4c1.1-1.3,1.6-2.8,1.6-4.5
		c-0.2-20.9-0.4-41.8-0.7-62.6c-0.8,0-1.2,0-1.9,0.1c-1.4,0-2.5,0.7-3.2,2c-0.7,1.3-1.3,4.1-1.8,8.5c-0.1,0.6-0.4,0.9-0.9,1
		c-0.7,0.1-1,0.1-1.7,0.1c-1,0.1-1.5-0.4-1.5-1.4c-0.1-6.1-0.1-9.2-0.2-15.3c0-1.2,0.4-1.8,1.4-1.8c0.6,0,1.6,0.1,3.2,0.4
		c2.4,0.4,4.3,0.6,5.5,0.6c6.3,0,9.4,0,15.7-0.1c0.8-0.1,1.8-0.3,2.9-0.5c1.7-0.3,2.8-0.4,2.9-0.4c0.8,0,1.2,0.4,1.2,1.1
		c0,5.3,0,8,0,13.3c0,0.9-0.4,1.3-1.1,1.4c-0.7,0.1-1,0.1-1.7,0.2c-0.7,0.1-1.1-0.1-1.2-0.5c-0.1-0.4-0.3-1.4-0.6-2.9
		c-0.5-2.6-1.1-4.3-1.6-5.1c-0.6-0.8-1.6-1.2-3-1.1C545.5,604,545.1,604,544.3,604z"/>
</g>
</svg>
